<svg width="32" height="32" viewBox="0 0 32 32" fill="none" xmlns="http://www.w3.org/2000/svg">
<g clip-path="url(#clip0_0_429)">
<path d="M27.6628 8.92858C26.7807 9.30088 25.845 9.54525 24.8869 9.65358C25.8849 9.08375 26.6511 8.1814 27.012 7.10626C26.0633 7.64259 25.0253 8.02047 23.943 8.22357C23.0613 7.32876 21.8053 6.76953 20.4152 6.76953C17.7461 6.76953 15.582 8.83109 15.582 11.3738C15.582 11.7347 15.6248 12.0861 15.7072 12.4231C11.6905 12.2311 8.12927 10.398 5.74549 7.61236C5.32955 8.29238 5.09122 9.0834 5.09122 9.9271C5.09122 11.5246 5.94453 12.9338 7.24128 13.7595C6.47378 13.7366 5.72317 13.5391 5.05211 13.1836C5.05184 13.2028 5.05184 13.2221 5.05184 13.2415C5.05184 15.4723 6.71777 17.3333 8.92866 17.7563C8.21696 17.9407 7.47044 17.9677 6.74612 17.8352C7.36109 19.6645 9.14601 20.9956 11.2608 21.0329C9.60675 22.2677 7.52277 23.0039 5.25851 23.0039C4.86835 23.0039 4.4837 22.982 4.10559 22.9395C6.24442 24.2459 8.78483 25.0082 11.5142 25.0082C20.404 25.0082 25.2651 17.9921 25.2651 11.9077C25.2651 11.708 25.2605 11.5095 25.2511 11.3121C26.1973 10.6604 27.014 9.8533 27.6628 8.92858Z" fill="#8247FF"/>
</g>
<defs>
<clipPath id="clip0_0_429">
<rect width="23.5572" height="18.3223" fill="white" transform="translate(4.10559 6.69922)"/>
</clipPath>
</defs>
</svg>
