<svg width="32" height="32" viewBox="0 0 32 32" fill="none" xmlns="http://www.w3.org/2000/svg">
<g clip-path="url(#clip0_0_425)">
<path d="M10.518 25.0217V11.7766H6.02866V25.0217H10.518ZM8.27392 9.96716C9.83944 9.96716 10.8139 8.9501 10.8139 7.67911C10.7847 6.37946 9.8395 5.39062 8.30363 5.39062C6.768 5.39062 5.76379 6.37948 5.76379 7.67911C5.76379 8.95016 6.73801 9.96716 8.24461 9.96716H8.27378H8.27392ZM13.0029 25.0217H17.4922V17.625C17.4922 17.2291 17.5214 16.8337 17.6399 16.5507C17.9645 15.7598 18.7032 14.9406 19.9433 14.9406C21.5678 14.9406 22.2177 16.1552 22.2177 17.9358V25.0216H26.7068V17.427C26.7068 13.3586 24.492 11.4657 21.5383 11.4657C19.1164 11.4657 18.0531 12.7932 17.4623 13.6973H17.4923V11.7764H13.003C13.0619 13.0192 13.003 25.0214 13.003 25.0214L13.0029 25.0217Z" fill="#8247FF"/>
</g>
<defs>
<clipPath id="clip0_0_425">
<rect width="20.9398" height="19.631" fill="white" transform="translate(5.76379 5.39062)"/>
</clipPath>
</defs>
</svg>
